<?xml version="1.0" encoding="utf-8"?>
<!-- Generator: Adobe Illustrator 16.0.0, SVG Export Plug-In . SVG Version: 6.00 Build 0)  -->
<!DOCTYPE svg PUBLIC "-//W3C//DTD SVG 1.1//EN" "http://www.w3.org/Graphics/SVG/1.1/DTD/svg11.dtd">
<svg version="1.1" id="Ebene_1" xmlns="http://www.w3.org/2000/svg" xmlns:xlink="http://www.w3.org/1999/xlink" x="0px" y="0px"
	 width="277px" height="203px" viewBox="0 0 277 203" enable-background="new 0 0 277 203" xml:space="preserve">
<g>
	<defs>
		<rect id="SVGID_1_" x="-164" y="-355.001" width="595.28" height="841.89"/>
	</defs>
	<clipPath id="SVGID_2_">
		<use xlink:href="#SVGID_1_"  overflow="visible"/>
	</clipPath>
	<path clip-path="url(#SVGID_2_)" fill="#00927B" d="M13.178,73.089c9.294-4.785,22.908-12.52,39.068-23.83v-3.795
		C38.024,54.768,23.561,62.24,13.178,67.183V73.089z"/>
	<path clip-path="url(#SVGID_2_)" fill="#00927B" d="M13.178,61.753c10.348-4.216,24.812-10.729,39.068-19.209V40.67
		c-13.399,6.647-27.321,10.808-39.068,13.401V61.753z"/>
	<path clip-path="url(#SVGID_2_)" fill="#00927B" d="M52.247,73.106V54.015c-8.895,7.498-17.703,13.99-25.103,19.092H52.247z"/>
	<path clip-path="url(#SVGID_2_)" fill="#00927B" d="M22.148,73.106c7.026-4.17,15.556-9.614,24.049-15.976
		c1.981-1.485,4.005-3.015,6.05-4.596v-2.366C39.675,59.593,26.844,67.45,16.82,73.106H22.148z"/>
	<path clip-path="url(#SVGID_2_)" fill="#00927B" d="M13.178,51.294c11.427-2.01,25.407-5.625,39.068-12.117v-2.129
		C38.48,43.229,24.7,45.85,13.178,46.781V51.294z"/>
	<path clip-path="url(#SVGID_2_)" fill="#00927B" d="M13.178,33.841v10.938c0.854-0.053,1.724-0.114,2.612-0.183
		c9.5-0.731,22.465-2.409,36.456-8.459v-2.296H13.178z"/>
	<path clip-path="url(#SVGID_2_)" fill="#FFFFFF" d="M13.178,44.779v2.003c11.522-0.933,25.302-3.554,39.068-9.733v-0.912
		c-13.991,6.05-26.956,7.729-36.456,8.459C14.902,44.666,14.032,44.726,13.178,44.779"/>
	<path clip-path="url(#SVGID_2_)" fill="#FFFFFF" d="M13.178,54.072c11.747-2.594,25.669-6.754,39.068-13.401v-1.494
		C38.585,45.67,24.605,49.285,13.178,51.295V54.072z"/>
	<path clip-path="url(#SVGID_2_)" fill="#FFFFFF" d="M13.178,67.183c10.383-4.943,24.846-12.415,39.068-21.719v-2.919
		c-14.256,8.479-28.72,14.993-39.068,19.209V67.183z"/>
	<path clip-path="url(#SVGID_2_)" fill="#FFFFFF" d="M22.148,73.106h4.996c7.4-5.102,16.208-11.594,25.103-19.092v-1.48
		c-2.045,1.581-4.069,3.111-6.05,4.596C37.704,63.493,29.174,68.937,22.148,73.106"/>
	<path clip-path="url(#SVGID_2_)" fill="#FFFFFF" d="M13.178,73.106h3.642c10.024-5.656,22.855-13.513,35.426-22.938v-0.909
		c-16.16,11.309-29.774,19.044-39.068,23.83V73.106z"/>
</g>
<g>
	<defs>
		<rect id="SVGID_3_" x="65.403" y="44.507" width="188.725" height="29.032"/>
	</defs>
	<clipPath id="SVGID_4_">
		<use xlink:href="#SVGID_3_"  overflow="visible"/>
	</clipPath>
	<path clip-path="url(#SVGID_4_)" d="M242.765,73.089h5.024v-7.091c0-2.774,0-7.877,4.085-7.877c0.902,0,1.804,0.148,2.254,0.413
		v-5.063c-0.53-0.15-1.053-0.15-1.54-0.15c-2.999,0-5.062,3.04-5.286,4.836h-0.077v-4.385h-4.46V73.089z M237.738,67.913
		c-1.878,1.049-3.975,1.951-6.416,1.951c-3.107,0-5.283-1.763-5.513-4.88h13.351c0-6.751-2.023-11.663-9.188-11.663
		c-5.997,0-8.96,4.612-8.96,10.201c0,6.342,3.71,10.016,10.089,10.016c2.702,0,4.797-0.525,6.638-1.539V67.913z M225.81,61.535
		c0.229-2.588,1.65-4.538,4.464-4.538c2.815,0,3.941,2.101,4.087,4.538H225.81z M209.759,73.089h5.024V57.446h4.388v-3.674h-4.388
		v-2.401c0-1.499,0.527-2.964,2.218-2.964c1.085,0,1.724,0.414,2.17,0.678l0.414-4.164c-0.975-0.225-2.398-0.414-3.674-0.414
		c-3.978,0-6.152,2.701-6.152,6.564v2.701h-3.711v3.674h3.711V73.089z M189.77,62.959c0-2.888,1.574-5.739,4.84-5.739
		c3.301,0,4.874,2.777,4.874,5.739c0,3.227-1.01,6.677-4.874,6.677C190.779,69.636,189.77,66.147,189.77,62.959 M184.517,63.562
		c0,5.546,3.717,9.976,10.093,9.976c6.412,0,10.124-4.43,10.124-9.976c0-6.378-4.384-10.241-10.124-10.241
		C188.908,53.321,184.517,57.184,184.517,63.562 M163.591,73.089h5.026v-9.455c0-2.473,0.787-6.414,4.428-6.414
		c3.225,0,3.261,3.19,3.261,5.552v10.317h5.021V60.897c0-4.35-1.986-7.576-6.559-7.576c-2.625,0-4.802,1.201-6.071,3.076h-0.08
		V44.959h-5.026V73.089z M140.679,73.089h5.023v-9.455c0-2.473,0.789-6.414,4.426-6.414c3.224,0,3.262,3.19,3.262,5.552v10.317
		h5.029V60.897c0-4.35-1.99-7.576-6.564-7.576c-2.626,0-4.766,0.864-6.338,3.076h-0.08v-2.625h-4.758V73.089z M135.501,53.772
		h-5.029v9.452c0,2.473-0.787,6.412-4.424,6.412c-3.226,0-3.263-3.189-3.263-5.552V53.772h-5.026v12.19
		c0,4.35,1.989,7.576,6.564,7.576c2.624,0,4.801-1.199,6.338-3.076h0.076v2.627h4.764V53.772z M101.218,67.499
		c0-2.964,3.338-3.339,5.589-3.339h2.176c0,1.502-0.225,2.886-1.052,3.978c-0.787,1.045-1.985,1.727-3.523,1.727
		C102.608,69.864,101.218,69.147,101.218,67.499 M98.67,59.098c1.687-1.277,3.824-2.101,5.963-2.101c2.961,0,4.35,1.05,4.35,4.164
		h-2.775c-2.1,0-4.576,0.184-6.489,1.124c-1.913,0.939-3.298,2.626-3.298,5.516c0,3.673,3.336,5.737,6.749,5.737
		c2.288,0,4.801-1.199,5.962-3.338h0.077c0.039,0.598,0.039,1.871,0.224,2.889h4.425c-0.112-1.504-0.186-2.855-0.226-4.316
		c-0.037-1.424-0.074-2.888-0.074-4.838v-2.475c0-5.702-2.437-8.138-8.325-8.138c-2.139,0-4.763,0.564-6.714,1.464L98.67,59.098z
		 M83.555,73.089h5.026v-7.091c0-2.774,0-7.877,4.087-7.877c0.9,0,1.8,0.148,2.252,0.413v-5.063c-0.526-0.15-1.05-0.15-1.538-0.15
		c-3,0-5.064,3.04-5.289,4.836h-0.075v-4.385h-4.463V73.089z M65.403,73.089h5.251v-11.48h8.852v-4.126h-8.852v-6.449h9.302v-4.125
		H65.403V73.089z"/>
</g>
<g>
	<defs>
		<rect id="SVGID_5_" x="-164" y="-355.001" width="595.28" height="841.89"/>
	</defs>
	<clipPath id="SVGID_6_">
		<use xlink:href="#SVGID_5_"  overflow="visible"/>
	</clipPath>
	<polygon clip-path="url(#SVGID_6_)" points="230.282,86.425 237.316,86.425 237.316,88.489 232.82,88.489 232.82,91.718 
		237.1,91.718 237.1,93.78 232.82,93.78 232.82,99.522 230.282,99.522 	"/>
	
		<line clip-path="url(#SVGID_6_)" fill="none" stroke="#000000" stroke-width="2.538" stroke-miterlimit="10" x1="241.215" y1="99.522" x2="241.215" y2="86.425"/>
	<polygon clip-path="url(#SVGID_6_)" points="247.962,88.489 244.336,88.489 244.336,86.425 254.128,86.425 254.128,88.489 
		250.5,88.489 250.5,99.522 247.962,99.522 	"/>
</g>
<g>
	<path d="M16.632,138.706v6.816h-2.417v-17.704c1.829-0.081,2.933-0.121,3.312-0.121c5.14,0,7.71,1.72,7.71,5.16
		c0,3.98-2.271,5.97-6.815,5.97C18.147,138.827,17.551,138.787,16.632,138.706z M16.632,129.993v6.538
		c1.023,0.081,1.563,0.121,1.62,0.121c2.997,0,4.496-1.181,4.496-3.541c0-2.159-1.6-3.239-4.798-3.239
		C17.627,129.872,17.188,129.913,16.632,129.993z"/>
	<path d="M34.869,134.791c-0.5-0.347-1.003-0.52-1.511-0.52c-0.814,0-1.525,0.374-2.133,1.124c-0.608,0.749-0.913,1.651-0.913,2.707
		v7.42h-2.296v-12.943h2.296v2.066c0.838-1.538,2.083-2.308,3.734-2.308c0.411,0,1.003,0.072,1.776,0.218L34.869,134.791z"/>
	<path d="M36.164,139.021c0-1.998,0.538-3.611,1.613-4.84s2.491-1.843,4.248-1.843c1.853,0,3.292,0.59,4.314,1.771
		s1.535,2.817,1.535,4.912c0,2.087-0.524,3.732-1.571,4.937c-1.047,1.205-2.474,1.808-4.278,1.808c-1.845,0-3.283-0.608-4.314-1.825
		C36.679,142.723,36.164,141.083,36.164,139.021z M38.581,139.021c0,3.247,1.148,4.87,3.444,4.87c1.072,0,1.912-0.435,2.52-1.305
		c0.608-0.87,0.913-2.059,0.913-3.565c0-3.206-1.145-4.81-3.433-4.81c-1.047,0-1.883,0.427-2.507,1.281
		C38.893,136.346,38.581,137.522,38.581,139.021z"/>
	<path d="M48.877,150.599v-2.055c1.579,0,2.66-0.24,3.245-0.72c0.584-0.479,0.876-1.267,0.876-2.362v-10.949h-2.574v-1.934h4.87
		v12.835c0,1.78-0.524,3.089-1.571,3.927S51.061,150.599,48.877,150.599z M53.832,127.685c0.395,0,0.731,0.14,1.009,0.417
		c0.278,0.278,0.417,0.61,0.417,0.997c0,0.396-0.139,0.731-0.417,1.01c-0.278,0.277-0.615,0.417-1.009,0.417
		c-0.395,0-0.729-0.14-1.003-0.417c-0.274-0.278-0.411-0.614-0.411-1.01c0-0.395,0.137-0.729,0.411-1.003
		C53.103,127.822,53.437,127.685,53.832,127.685z"/>
	<path d="M70.268,139.274h-9.33c0,1.515,0.415,2.679,1.245,3.492c0.733,0.71,1.676,1.064,2.828,1.064
		c1.313,0,2.409-0.383,3.287-1.148l0.967,1.655c-0.355,0.354-0.899,0.661-1.632,0.919c-0.918,0.338-1.941,0.508-3.069,0.508
		c-1.627,0-3.009-0.552-4.146-1.656c-1.265-1.216-1.897-2.852-1.897-4.906c0-2.135,0.648-3.847,1.946-5.137
		c1.16-1.151,2.533-1.728,4.121-1.728c1.845,0,3.291,0.52,4.338,1.559c1.016,0.999,1.523,2.325,1.523,3.977
		C70.449,138.38,70.388,138.848,70.268,139.274z M64.696,134.271c-1.023,0-1.881,0.33-2.574,0.991
		c-0.661,0.628-1.035,1.409-1.124,2.344h7.167c0-0.926-0.29-1.699-0.87-2.32C66.658,134.609,65.792,134.271,64.696,134.271z"/>
	<path d="M81.229,145.522l-4.061-6.478l-2.006,2.066v4.411h-2.296v-18.248h2.296v11.323l4.955-6.019H82.8l-4.146,4.919l5.064,8.024
		H81.229z"/>
	<path d="M86.171,134.393h-1.499v-1.813h1.499v-2.707l2.296-0.882v3.589h3.553v1.813h-3.553v6.429c0,1.088,0.183,1.861,0.55,2.32
		c0.366,0.459,0.957,0.689,1.771,0.689c0.588,0,1.196-0.149,1.825-0.447l0.338,2.018c-0.951,0.242-1.994,0.363-3.13,0.363
		c-1.023,0-1.888-0.381-2.592-1.143c-0.705-0.762-1.058-1.722-1.058-2.882V134.393z"/>
	<path d="M94.691,149.063l1.245-1.837c1.337,0.895,2.57,1.341,3.698,1.341c1.039,0,1.859-0.179,2.459-0.537s0.9-0.804,0.9-1.336
		c0-1.047-0.757-1.57-2.272-1.57c-0.258,0-0.725,0.064-1.402,0.193s-1.205,0.193-1.583,0.193c-1.837,0-2.755-0.693-2.755-2.079
		c0-0.427,0.215-0.813,0.646-1.16c0.431-0.346,0.965-0.596,1.602-0.749c-1.821-0.854-2.731-2.337-2.731-4.447
		c0-1.354,0.471-2.481,1.414-3.384c0.942-0.902,2.106-1.354,3.492-1.354c1.273,0,2.268,0.262,2.985,0.785l1.148-1.378l1.499,1.414
		l-1.378,1.04c0.588,0.766,0.882,1.764,0.882,2.997c0,1.305-0.407,2.4-1.22,3.287c-0.814,0.886-1.881,1.394-3.203,1.522
		l-1.897,0.193c-0.226,0.024-0.528,0.11-0.906,0.26c-0.379,0.149-0.568,0.345-0.568,0.586c0,0.331,0.395,0.495,1.184,0.495
		c0.346,0,0.886-0.062,1.62-0.187c0.733-0.125,1.276-0.188,1.631-0.188c1.273,0,2.266,0.304,2.979,0.912
		c0.713,0.608,1.069,1.452,1.069,2.532c0,1.192-0.534,2.155-1.601,2.888c-1.068,0.733-2.419,1.101-4.055,1.101
		c-0.838,0-1.72-0.149-2.646-0.447C96,149.853,95.255,149.49,94.691,149.063z M99.562,134.187c-0.797,0-1.448,0.282-1.952,0.846
		c-0.503,0.564-0.755,1.249-0.755,2.055c0,0.902,0.244,1.649,0.731,2.242c0.487,0.592,1.146,0.888,1.976,0.888
		c0.814,0,1.45-0.287,1.91-0.863c0.459-0.576,0.689-1.332,0.689-2.267c0-0.806-0.248-1.49-0.744-2.055
		C100.921,134.469,100.303,134.187,99.562,134.187z"/>
	<path d="M114.62,134.791c-0.5-0.347-1.003-0.52-1.511-0.52c-0.814,0-1.525,0.374-2.133,1.124c-0.608,0.749-0.913,1.651-0.913,2.707
		v7.42h-2.296v-12.943h2.296v2.066c0.838-1.538,2.083-2.308,3.734-2.308c0.411,0,1.003,0.072,1.776,0.218L114.62,134.791z"/>
	<path d="M119.381,132.579v8.254c0,1.999,0.866,2.998,2.599,2.998c0.757,0,1.45-0.218,2.078-0.653
		c0.629-0.435,1.043-0.938,1.245-1.511v-9.088h2.296v12.943h-2.296v-1.789c-0.258,0.508-0.776,0.974-1.553,1.396
		s-1.537,0.635-2.278,0.635c-1.418,0-2.504-0.407-3.257-1.221c-0.753-0.814-1.13-1.971-1.13-3.469v-8.496H119.381z"/>
	<path d="M133.025,144.81v5.789h-2.296v-18.02h2.296v1.063c0.87-0.87,1.921-1.305,3.155-1.305c1.836,0,3.266,0.572,4.289,1.716
		c1.023,1.145,1.535,2.82,1.535,5.027c0,1.966-0.516,3.571-1.547,4.816c-1.031,1.244-2.521,1.867-4.471,1.867
		c-0.549,0-1.135-0.098-1.759-0.291S133.202,145.06,133.025,144.81z M133.025,135.371v7.541c0.145,0.218,0.451,0.425,0.918,0.622
		c0.467,0.198,0.922,0.297,1.365,0.297c2.852,0,4.279-1.611,4.279-4.834c0-1.636-0.34-2.832-1.016-3.59
		c-0.678-0.757-1.762-1.136-3.252-1.136c-0.322,0-0.717,0.113-1.184,0.338C133.669,134.835,133.298,135.089,133.025,135.371z"/>
	<path d="M146.813,144.81v5.789h-2.296v-18.02h2.296v1.063c0.87-0.87,1.922-1.305,3.154-1.305c1.837,0,3.267,0.572,4.29,1.716
		c1.022,1.145,1.534,2.82,1.534,5.027c0,1.966-0.516,3.571-1.547,4.816c-1.031,1.244-2.521,1.867-4.471,1.867
		c-0.548,0-1.135-0.098-1.759-0.291S146.99,145.06,146.813,144.81z M146.813,135.371v7.541c0.145,0.218,0.451,0.425,0.918,0.622
		c0.468,0.198,0.923,0.297,1.366,0.297c2.852,0,4.278-1.611,4.278-4.834c0-1.636-0.339-2.832-1.016-3.59
		c-0.677-0.757-1.761-1.136-3.251-1.136c-0.322,0-0.717,0.113-1.185,0.338C147.458,134.835,147.087,135.089,146.813,135.371z"/>
	<path d="M169.207,139.274h-9.33c0,1.515,0.415,2.679,1.245,3.492c0.733,0.71,1.676,1.064,2.828,1.064
		c1.313,0,2.408-0.383,3.287-1.148l0.967,1.655c-0.354,0.354-0.898,0.661-1.632,0.919c-0.918,0.338-1.941,0.508-3.069,0.508
		c-1.628,0-3.01-0.552-4.146-1.656c-1.265-1.216-1.897-2.852-1.897-4.906c0-2.135,0.648-3.847,1.946-5.137
		c1.16-1.151,2.533-1.728,4.121-1.728c1.845,0,3.291,0.52,4.338,1.559c1.016,0.999,1.522,2.325,1.522,3.977
		C169.388,138.38,169.328,138.848,169.207,139.274z M163.636,134.271c-1.023,0-1.881,0.33-2.574,0.991
		c-0.66,0.628-1.035,1.409-1.124,2.344h7.167c0-0.926-0.29-1.699-0.87-2.32C165.598,134.609,164.731,134.271,163.636,134.271z"/>
	<path d="M27.823,175.465h-0.761l-4.218-12.206l-3.939,12.206h-0.762l-5.583-17.946h2.514l3.553,12.362l3.892-12.362h0.846
		l3.843,12.339l3.613-12.339h2.514L27.823,175.465z"/>
	<path d="M36.829,175.223v-11.01h-1.776v-1.934h4.073v12.943H36.829z M38.085,157.385c0.395,0,0.731,0.14,1.009,0.417
		c0.278,0.278,0.417,0.61,0.417,0.997c0,0.396-0.139,0.731-0.417,1.01c-0.278,0.277-0.615,0.417-1.009,0.417
		c-0.387,0-0.719-0.14-0.997-0.417c-0.278-0.278-0.417-0.614-0.417-1.01c0-0.395,0.137-0.729,0.411-1.003
		C37.356,157.522,37.691,157.385,38.085,157.385z"/>
	<path d="M49.808,164.491c-0.5-0.347-1.003-0.52-1.511-0.52c-0.814,0-1.525,0.374-2.133,1.124c-0.608,0.749-0.913,1.651-0.913,2.707
		v7.42h-2.296v-12.943h2.296v2.066c0.838-1.538,2.083-2.308,3.734-2.308c0.411,0,1.003,0.072,1.776,0.218L49.808,164.491z"/>
	<path d="M53.216,164.093h-1.499v-1.813h1.499v-2.707l2.296-0.882v3.589h3.553v1.813h-3.553v6.429c0,1.088,0.183,1.861,0.55,2.32
		c0.366,0.459,0.957,0.689,1.771,0.689c0.588,0,1.196-0.149,1.825-0.447l0.338,2.018c-0.951,0.242-1.994,0.363-3.13,0.363
		c-1.023,0-1.888-0.381-2.592-1.143c-0.705-0.762-1.058-1.722-1.058-2.882V164.093z"/>
	<path d="M61.361,174.449l0.81-2.176c1.281,0.839,2.312,1.258,3.094,1.258c1.418,0,2.127-0.597,2.127-1.789
		c0-0.854-0.685-1.587-2.054-2.199c-1.056-0.483-1.767-0.851-2.133-1.1c-0.367-0.25-0.685-0.534-0.955-0.853
		c-0.27-0.318-0.471-0.656-0.604-1.015c-0.133-0.358-0.199-0.743-0.199-1.154c0-1.063,0.387-1.894,1.16-2.489
		c0.773-0.597,1.784-0.895,3.033-0.895c0.943,0,2.131,0.298,3.565,0.895l-0.653,2.127c-0.911-0.726-1.825-1.088-2.743-1.088
		c-0.548,0-1.009,0.129-1.384,0.387s-0.562,0.584-0.562,0.979c0,0.83,0.471,1.459,1.414,1.886l1.644,0.749
		c1.007,0.459,1.74,0.983,2.199,1.571c0.459,0.588,0.689,1.325,0.689,2.211c0,1.16-0.407,2.069-1.221,2.726
		s-1.941,0.985-3.384,0.985C63.843,175.465,62.562,175.126,61.361,174.449z"/>
	<path d="M81.99,163.331l-1.136,1.619c-0.234-0.233-0.646-0.455-1.239-0.664c-0.592-0.21-1.174-0.314-1.746-0.314
		c-1.249,0-2.24,0.438-2.973,1.312c-0.733,0.874-1.1,2.072-1.1,3.595c0,1.515,0.375,2.669,1.124,3.463
		c0.75,0.793,1.789,1.19,3.118,1.19c1.031,0,2.07-0.399,3.118-1.197l0.906,1.934c-1.233,0.798-2.76,1.197-4.58,1.197
		c-1.765,0-3.223-0.593-4.375-1.777c-1.152-1.184-1.728-2.787-1.728-4.81c0-2.063,0.598-3.718,1.794-4.967s2.834-1.873,4.913-1.873
		c0.668,0,1.394,0.141,2.175,0.423C81.043,162.743,81.62,163.033,81.99,163.331z"/>
	<path d="M92.456,175.223v-8.133c0-0.967-0.238-1.729-0.713-2.284c-0.476-0.556-1.144-0.834-2.006-0.834
		c-0.556,0-1.114,0.163-1.674,0.489c-0.56,0.326-0.989,0.707-1.287,1.143v9.619h-2.296v-18.248h2.296v6.731
		c0.306-0.476,0.799-0.872,1.48-1.19c0.681-0.318,1.384-0.478,2.108-0.478c1.37,0,2.443,0.451,3.221,1.354s1.167,2.135,1.167,3.698
		v8.133H92.456z"/>
	<path d="M105.314,173.736c-0.918,1.152-2.325,1.729-4.218,1.729c-1.015,0-1.896-0.369-2.641-1.106s-1.118-1.653-1.118-2.749
		c0-1.313,0.574-2.423,1.722-3.329c1.148-0.907,2.612-1.36,4.393-1.36c0.483,0,1.031,0.105,1.644,0.314
		c0-2.095-0.935-3.142-2.804-3.142c-1.435,0-2.538,0.387-3.312,1.16l-0.967-1.922c0.435-0.354,1.037-0.658,1.807-0.912
		s1.505-0.381,2.206-0.381c1.877,0,3.241,0.427,4.091,1.281c0.85,0.854,1.275,2.211,1.275,4.072v4.641
		c0,1.136,0.338,1.894,1.015,2.272v1.147c-0.935,0-1.634-0.133-2.097-0.398C105.848,174.787,105.515,174.349,105.314,173.736z
		 M105.097,168.866c-0.726-0.161-1.233-0.242-1.523-0.242c-1.16,0-2.107,0.299-2.84,0.895c-0.733,0.597-1.1,1.301-1.1,2.115
		c0,1.346,0.793,2.018,2.381,2.018c1.16,0,2.188-0.552,3.082-1.655V168.866z"/>
	<path d="M118.003,159.029c-0.468-0.161-0.903-0.242-1.306-0.242c-0.701,0-1.279,0.266-1.734,0.798
		c-0.456,0.531-0.683,1.204-0.683,2.018c0,0.218,0.02,0.443,0.061,0.677h2.635v1.934h-2.635v11.01h-2.296v-11.01h-1.885v-1.934
		h1.885c0-1.651,0.407-2.948,1.221-3.891c0.813-0.943,1.889-1.414,3.227-1.414c0.668,0,1.385,0.121,2.151,0.362L118.003,159.029z"/>
	<path d="M120.976,164.093h-1.499v-1.813h1.499v-2.707l2.296-0.882v3.589h3.553v1.813h-3.553v6.429c0,1.088,0.183,1.861,0.55,2.32
		c0.366,0.459,0.957,0.689,1.771,0.689c0.588,0,1.196-0.149,1.825-0.447l0.338,2.018c-0.951,0.242-1.994,0.363-3.13,0.363
		c-1.023,0-1.888-0.381-2.592-1.143c-0.705-0.762-1.058-1.722-1.058-2.882V164.093z"/>
	<path d="M129.122,174.449l0.81-2.176c1.281,0.839,2.312,1.258,3.094,1.258c1.418,0,2.127-0.597,2.127-1.789
		c0-0.854-0.686-1.587-2.055-2.199c-1.056-0.483-1.767-0.851-2.133-1.1c-0.367-0.25-0.685-0.534-0.955-0.853
		c-0.27-0.318-0.471-0.656-0.604-1.015c-0.133-0.358-0.199-0.743-0.199-1.154c0-1.063,0.387-1.894,1.16-2.489
		c0.773-0.597,1.784-0.895,3.033-0.895c0.943,0,2.131,0.298,3.565,0.895l-0.652,2.127c-0.911-0.726-1.825-1.088-2.744-1.088
		c-0.548,0-1.009,0.129-1.384,0.387s-0.562,0.584-0.562,0.979c0,0.83,0.471,1.459,1.414,1.886l1.644,0.749
		c1.007,0.459,1.74,0.983,2.199,1.571s0.688,1.325,0.688,2.211c0,1.16-0.406,2.069-1.22,2.726c-0.814,0.656-1.942,0.985-3.384,0.985
		C131.603,175.465,130.322,175.126,129.122,174.449z"/>
	<path d="M141.097,175.223v-11.01h-1.776v-1.934h4.072v12.943H141.097z M142.354,157.385c0.395,0,0.731,0.14,1.009,0.417
		c0.278,0.278,0.417,0.61,0.417,0.997c0,0.396-0.139,0.731-0.417,1.01c-0.277,0.277-0.614,0.417-1.009,0.417
		c-0.387,0-0.719-0.14-0.997-0.417c-0.277-0.278-0.417-0.614-0.417-1.01c0-0.395,0.137-0.729,0.411-1.003
		C141.624,157.522,141.959,157.385,142.354,157.385z"/>
	<path d="M155.007,175.223v-7.529c0-1.377-0.208-2.342-0.623-2.894s-1.109-0.828-2.084-0.828c-0.524,0-1.072,0.157-1.644,0.472
		c-0.572,0.313-1.012,0.7-1.317,1.16v9.619h-2.296v-12.943h1.57l0.726,1.668c0.757-1.272,1.994-1.909,3.71-1.909
		c2.836,0,4.254,1.724,4.254,5.172v8.013H155.007z"/>
	<path d="M167.563,159.029c-0.468-0.161-0.902-0.242-1.306-0.242c-0.7,0-1.279,0.266-1.734,0.798
		c-0.455,0.531-0.683,1.204-0.683,2.018c0,0.218,0.021,0.443,0.061,0.677h2.635v1.934h-2.635v11.01h-2.296v-11.01h-1.886v-1.934
		h1.886c0-1.651,0.406-2.948,1.221-3.891c0.813-0.943,1.889-1.414,3.227-1.414c0.669,0,1.386,0.121,2.151,0.362L167.563,159.029z"/>
	<path d="M168.868,168.721c0-1.998,0.538-3.611,1.613-4.84c1.076-1.229,2.492-1.843,4.248-1.843c1.854,0,3.291,0.59,4.314,1.771
		s1.535,2.817,1.535,4.912c0,2.087-0.524,3.732-1.571,4.937c-1.048,1.205-2.474,1.808-4.278,1.808c-1.845,0-3.283-0.608-4.314-1.825
		S168.868,170.783,168.868,168.721z M171.285,168.721c0,3.247,1.148,4.87,3.444,4.87c1.071,0,1.911-0.435,2.52-1.305
		s0.913-2.059,0.913-3.565c0-3.206-1.145-4.81-3.433-4.81c-1.047,0-1.883,0.427-2.508,1.281
		C171.598,166.046,171.285,167.223,171.285,168.721z"/>
	<path d="M190.029,164.491c-0.5-0.347-1.003-0.52-1.511-0.52c-0.813,0-1.524,0.374-2.133,1.124
		c-0.608,0.749-0.912,1.651-0.912,2.707v7.42h-2.297v-12.943h2.297v2.066c0.837-1.538,2.082-2.308,3.733-2.308
		c0.411,0,1.003,0.072,1.776,0.218L190.029,164.491z"/>
	<path d="M207.602,175.223v-8.193c0-2.038-0.883-3.058-2.646-3.058c-0.557,0-1.076,0.171-1.56,0.514s-0.813,0.731-0.991,1.166v9.571
		h-2.296v-9.196c0-0.637-0.239-1.139-0.719-1.505s-1.114-0.55-1.903-0.55c-0.459,0-0.949,0.177-1.469,0.531
		c-0.52,0.355-0.888,0.746-1.105,1.173v9.547h-2.296v-12.943h1.498l0.762,1.499c0.886-1.16,1.994-1.74,3.323-1.74
		c1.853,0,3.149,0.576,3.892,1.728c0.258-0.491,0.737-0.901,1.438-1.232c0.701-0.33,1.422-0.495,2.163-0.495
		c1.338,0,2.373,0.396,3.106,1.19c0.732,0.794,1.1,1.907,1.1,3.342v8.652H207.602z"/>
	<path d="M220.473,173.736c-0.919,1.152-2.325,1.729-4.218,1.729c-1.016,0-1.896-0.369-2.641-1.106
		c-0.746-0.737-1.118-1.653-1.118-2.749c0-1.313,0.574-2.423,1.722-3.329c1.148-0.907,2.612-1.36,4.394-1.36
		c0.483,0,1.031,0.105,1.644,0.314c0-2.095-0.935-3.142-2.804-3.142c-1.435,0-2.538,0.387-3.312,1.16l-0.967-1.922
		c0.435-0.354,1.037-0.658,1.807-0.912s1.505-0.381,2.206-0.381c1.877,0,3.24,0.427,4.09,1.281c0.851,0.854,1.275,2.211,1.275,4.072
		v4.641c0,1.136,0.338,1.894,1.016,2.272v1.147c-0.936,0-1.634-0.133-2.098-0.398C221.006,174.787,220.674,174.349,220.473,173.736z
		 M220.255,168.866c-0.726-0.161-1.233-0.242-1.522-0.242c-1.16,0-2.107,0.299-2.841,0.895c-0.732,0.597-1.1,1.301-1.1,2.115
		c0,1.346,0.794,2.018,2.381,2.018c1.16,0,2.188-0.552,3.082-1.655V168.866z"/>
	<path d="M226.986,164.093h-1.498v-1.813h1.498v-2.707l2.296-0.882v3.589h3.554v1.813h-3.554v6.429c0,1.088,0.184,1.861,0.55,2.32
		c0.367,0.459,0.957,0.689,1.771,0.689c0.588,0,1.196-0.149,1.825-0.447l0.338,2.018c-0.95,0.242-1.993,0.363-3.13,0.363
		c-1.022,0-1.887-0.381-2.592-1.143s-1.058-1.722-1.058-2.882V164.093z"/>
	<path d="M237.089,175.223v-11.01h-1.776v-1.934h4.072v12.943H237.089z M238.346,157.385c0.395,0,0.731,0.14,1.009,0.417
		c0.278,0.278,0.417,0.61,0.417,0.997c0,0.396-0.139,0.731-0.417,1.01c-0.277,0.277-0.614,0.417-1.009,0.417
		c-0.387,0-0.719-0.14-0.997-0.417c-0.277-0.278-0.417-0.614-0.417-1.01c0-0.395,0.137-0.729,0.411-1.003
		C237.616,157.522,237.951,157.385,238.346,157.385z"/>
	<path d="M251.397,175.223l-4.061-6.478l-2.006,2.066v4.411h-2.296v-18.248h2.296v11.323l4.955-6.019h2.683l-4.146,4.919
		l5.063,8.024H251.397z"/>
</g>
</svg>
